<?xml version="1.0" encoding="UTF-8" standalone="no"?>
<!DOCTYPE svg PUBLIC "-//W3C//DTD SVG 1.1//EN"
 "http://www.w3.org/Graphics/SVG/1.1/DTD/svg11.dtd">
<!-- Generated by graphviz version 2.38.0 (20140413.2041)
 -->
<!-- Title: controllers_diagram Pages: 1 -->
<svg width="640pt" height="634pt"
 viewBox="0.00 0.00 639.50 633.50" xmlns="http://www.w3.org/2000/svg" xmlns:xlink="http://www.w3.org/1999/xlink">
<g id="graph0" class="graph" transform="scale(1 1) rotate(0) translate(270 401.5)">
<title>controllers_diagram</title>
<polygon fill="none" stroke="none" points="-270,232 -270,-401.5 369.5,-401.5 369.5,232 -270,232"/>
<!-- _diagram_info -->
<g id="node1" class="node"><title>_diagram_info</title>
<text text-anchor="start" x="122.5" y="164.4" font-family="Times New Roman,serif" font-size="13.00">Controllers diagram</text>
<text text-anchor="start" x="122.5" y="178.4" font-family="Times New Roman,serif" font-size="13.00">Date: Nov 15 2019 &#45; 17:26</text>
<text text-anchor="start" x="122.5" y="192.4" font-family="Times New Roman,serif" font-size="13.00">Migration version: 20191112212936</text>
<text text-anchor="start" x="122.5" y="206.4" font-family="Times New Roman,serif" font-size="13.00">Generated by RailRoady 1.5.3</text>
<text text-anchor="start" x="122.5" y="220.4" font-family="Times New Roman,serif" font-size="13.00">http://railroady.prestonlee.com</text>
</g>
<!-- ApplicationController -->
<g id="node2" class="node"><title>ApplicationController</title>
<path fill="none" stroke="black" d="M240.5,-229C240.5,-229 353.5,-229 353.5,-229 359.5,-229 365.5,-235 365.5,-241 365.5,-241 365.5,-385 365.5,-385 365.5,-391 359.5,-397 353.5,-397 353.5,-397 240.5,-397 240.5,-397 234.5,-397 228.5,-391 228.5,-385 228.5,-385 228.5,-241 228.5,-241 228.5,-235 234.5,-229 240.5,-229"/>
<text text-anchor="middle" x="297" y="-381.8" font-family="Times New Roman,serif" font-size="14.00">ApplicationController</text>
<polyline fill="none" stroke="black" points="228.5,-374 365.5,-374 "/>
<text text-anchor="start" x="236.5" y="-358.8" font-family="Times New Roman,serif" font-size="14.00">authenticate_user!</text>
<text text-anchor="start" x="236.5" y="-343.8" font-family="Times New Roman,serif" font-size="14.00">current_admin</text>
<text text-anchor="start" x="236.5" y="-328.8" font-family="Times New Roman,serif" font-size="14.00">current_user</text>
<text text-anchor="start" x="236.5" y="-313.8" font-family="Times New Roman,serif" font-size="14.00">set_cache_crusher</text>
<text text-anchor="start" x="236.5" y="-298.8" font-family="Times New Roman,serif" font-size="14.00">valid_session</text>
<text text-anchor="start" x="236.5" y="-283.8" font-family="Times New Roman,serif" font-size="14.00">authenticate_admin!</text>
<polyline fill="none" stroke="black" points="228.5,-276 365.5,-276 "/>
<polyline fill="none" stroke="black" points="228.5,-252 365.5,-252 "/>
<text text-anchor="start" x="236.5" y="-236.8" font-family="Times New Roman,serif" font-size="14.00">_layout</text>
</g>
<!-- DonationTransactionController -->
<g id="node3" class="node"><title>DonationTransactionController</title>
<path fill="none" stroke="black" d="M-101.5,132.5C-101.5,132.5 69.5,132.5 69.5,132.5 75.5,132.5 81.5,126.5 81.5,120.5 81.5,120.5 81.5,-98.5 81.5,-98.5 81.5,-104.5 75.5,-110.5 69.5,-110.5 69.5,-110.5 -101.5,-110.5 -101.5,-110.5 -107.5,-110.5 -113.5,-104.5 -113.5,-98.5 -113.5,-98.5 -113.5,120.5 -113.5,120.5 -113.5,126.5 -107.5,132.5 -101.5,132.5"/>
<text text-anchor="middle" x="-16" y="-95.3" font-family="Times New Roman,serif" font-size="14.00">DonationTransactionController</text>
<polyline fill="none" stroke="black" points="-113.5,-87.5 81.5,-87.5 "/>
<text text-anchor="start" x="-105.5" y="-72.3" font-family="Times New Roman,serif" font-size="14.00">checkout</text>
<text text-anchor="start" x="-105.5" y="-57.3" font-family="Times New Roman,serif" font-size="14.00">index</text>
<text text-anchor="start" x="-105.5" y="-42.3" font-family="Times New Roman,serif" font-size="14.00">new</text>
<text text-anchor="start" x="-105.5" y="-27.3" font-family="Times New Roman,serif" font-size="14.00">success</text>
<text text-anchor="start" x="-105.5" y="-12.3" font-family="Times New Roman,serif" font-size="14.00">cancelled</text>
<polyline fill="none" stroke="black" points="-113.5,-4.5 81.5,-4.5 "/>
<polyline fill="none" stroke="black" points="-113.5,19.5 81.5,19.5 "/>
<text text-anchor="start" x="-105.5" y="34.7" font-family="Times New Roman,serif" font-size="14.00">build_item</text>
<text text-anchor="start" x="-105.5" y="49.7" font-family="Times New Roman,serif" font-size="14.00">build_transaction</text>
<text text-anchor="start" x="-105.5" y="64.7" font-family="Times New Roman,serif" font-size="14.00">execute_paypal_payment</text>
<text text-anchor="start" x="-105.5" y="79.7" font-family="Times New Roman,serif" font-size="14.00">new_paypal_service</text>
<text text-anchor="start" x="-105.5" y="94.7" font-family="Times New Roman,serif" font-size="14.00">paypal_transaction_cancel_url</text>
<text text-anchor="start" x="-105.5" y="109.7" font-family="Times New Roman,serif" font-size="14.00">paypal_transaction_success_url</text>
<text text-anchor="start" x="-105.5" y="124.7" font-family="Times New Roman,serif" font-size="14.00">_layout</text>
</g>
<!-- PasswordResetsController -->
<g id="node4" class="node"><title>PasswordResetsController</title>
<path fill="none" stroke="black" d="M-83,-152.5C-83,-152.5 59,-152.5 59,-152.5 65,-152.5 71,-158.5 71,-164.5 71,-164.5 71,-293.5 71,-293.5 71,-299.5 65,-305.5 59,-305.5 59,-305.5 -83,-305.5 -83,-305.5 -89,-305.5 -95,-299.5 -95,-293.5 -95,-293.5 -95,-164.5 -95,-164.5 -95,-158.5 -89,-152.5 -83,-152.5"/>
<text text-anchor="middle" x="-12" y="-290.3" font-family="Times New Roman,serif" font-size="14.00">PasswordResetsController</text>
<polyline fill="none" stroke="black" points="-95,-282.5 71,-282.5 "/>
<text text-anchor="start" x="-87" y="-267.3" font-family="Times New Roman,serif" font-size="14.00">edit</text>
<text text-anchor="start" x="-87" y="-252.3" font-family="Times New Roman,serif" font-size="14.00">new</text>
<text text-anchor="start" x="-87" y="-237.3" font-family="Times New Roman,serif" font-size="14.00">update</text>
<text text-anchor="start" x="-87" y="-222.3" font-family="Times New Roman,serif" font-size="14.00">create</text>
<polyline fill="none" stroke="black" points="-95,-214.5 71,-214.5 "/>
<polyline fill="none" stroke="black" points="-95,-190.5 71,-190.5 "/>
<text text-anchor="start" x="-87" y="-175.3" font-family="Times New Roman,serif" font-size="14.00">user_params</text>
<text text-anchor="start" x="-87" y="-160.3" font-family="Times New Roman,serif" font-size="14.00">_layout</text>
</g>
<!-- ReceiptsController -->
<g id="node5" class="node"><title>ReceiptsController</title>
<path fill="none" stroke="black" d="M-254,-0.5C-254,-0.5 -156,-0.5 -156,-0.5 -150,-0.5 -144,-6.5 -144,-12.5 -144,-12.5 -144,-111.5 -144,-111.5 -144,-117.5 -150,-123.5 -156,-123.5 -156,-123.5 -254,-123.5 -254,-123.5 -260,-123.5 -266,-117.5 -266,-111.5 -266,-111.5 -266,-12.5 -266,-12.5 -266,-6.5 -260,-0.5 -254,-0.5"/>
<text text-anchor="middle" x="-205" y="-108.3" font-family="Times New Roman,serif" font-size="14.00">ReceiptsController</text>
<polyline fill="none" stroke="black" points="-266,-100.5 -144,-100.5 "/>
<text text-anchor="start" x="-258" y="-85.3" font-family="Times New Roman,serif" font-size="14.00">show</text>
<text text-anchor="start" x="-258" y="-70.3" font-family="Times New Roman,serif" font-size="14.00">index</text>
<polyline fill="none" stroke="black" points="-266,-62.5 -144,-62.5 "/>
<polyline fill="none" stroke="black" points="-266,-38.5 -144,-38.5 "/>
<text text-anchor="start" x="-258" y="-23.3" font-family="Times New Roman,serif" font-size="14.00">total</text>
<text text-anchor="start" x="-258" y="-8.3" font-family="Times New Roman,serif" font-size="14.00">_layout</text>
</g>
<!-- SessionsController -->
<g id="node6" class="node"><title>SessionsController</title>
<path fill="none" stroke="black" d="M-235,-247.5C-235,-247.5 -137,-247.5 -137,-247.5 -131,-247.5 -125,-253.5 -125,-259.5 -125,-259.5 -125,-358.5 -125,-358.5 -125,-364.5 -131,-370.5 -137,-370.5 -137,-370.5 -235,-370.5 -235,-370.5 -241,-370.5 -247,-364.5 -247,-358.5 -247,-358.5 -247,-259.5 -247,-259.5 -247,-253.5 -241,-247.5 -235,-247.5"/>
<text text-anchor="middle" x="-186" y="-355.3" font-family="Times New Roman,serif" font-size="14.00">SessionsController</text>
<polyline fill="none" stroke="black" points="-247,-347.5 -125,-347.5 "/>
<text text-anchor="start" x="-239" y="-332.3" font-family="Times New Roman,serif" font-size="14.00">destroy</text>
<text text-anchor="start" x="-239" y="-317.3" font-family="Times New Roman,serif" font-size="14.00">new</text>
<text text-anchor="start" x="-239" y="-302.3" font-family="Times New Roman,serif" font-size="14.00">create</text>
<polyline fill="none" stroke="black" points="-247,-294.5 -125,-294.5 "/>
<polyline fill="none" stroke="black" points="-247,-270.5 -125,-270.5 "/>
<text text-anchor="start" x="-239" y="-255.3" font-family="Times New Roman,serif" font-size="14.00">_layout</text>
</g>
<!-- UsersController -->
<g id="node7" class="node"><title>UsersController</title>
<path fill="none" stroke="black" d="M126.5,113.5C126.5,113.5 251.5,113.5 251.5,113.5 257.5,113.5 263.5,107.5 263.5,101.5 263.5,101.5 263.5,-177.5 263.5,-177.5 263.5,-183.5 257.5,-189.5 251.5,-189.5 251.5,-189.5 126.5,-189.5 126.5,-189.5 120.5,-189.5 114.5,-183.5 114.5,-177.5 114.5,-177.5 114.5,101.5 114.5,101.5 114.5,107.5 120.5,113.5 126.5,113.5"/>
<text text-anchor="middle" x="189" y="-174.3" font-family="Times New Roman,serif" font-size="14.00">UsersController</text>
<polyline fill="none" stroke="black" points="114.5,-166.5 263.5,-166.5 "/>
<text text-anchor="start" x="122.5" y="-151.3" font-family="Times New Roman,serif" font-size="14.00">change_password</text>
<text text-anchor="start" x="122.5" y="-136.3" font-family="Times New Roman,serif" font-size="14.00">create</text>
<text text-anchor="start" x="122.5" y="-121.3" font-family="Times New Roman,serif" font-size="14.00">destroy</text>
<text text-anchor="start" x="122.5" y="-106.3" font-family="Times New Roman,serif" font-size="14.00">edit</text>
<text text-anchor="start" x="122.5" y="-91.3" font-family="Times New Roman,serif" font-size="14.00">index</text>
<text text-anchor="start" x="122.5" y="-76.3" font-family="Times New Roman,serif" font-size="14.00">new</text>
<text text-anchor="start" x="122.5" y="-61.3" font-family="Times New Roman,serif" font-size="14.00">show</text>
<text text-anchor="start" x="122.5" y="-46.3" font-family="Times New Roman,serif" font-size="14.00">update</text>
<text text-anchor="start" x="122.5" y="-31.3" font-family="Times New Roman,serif" font-size="14.00">update_password</text>
<polyline fill="none" stroke="black" points="114.5,-23.5 263.5,-23.5 "/>
<polyline fill="none" stroke="black" points="114.5,0.5 263.5,0.5 "/>
<text text-anchor="start" x="122.5" y="15.7" font-family="Times New Roman,serif" font-size="14.00">is_currently_admin?</text>
<text text-anchor="start" x="122.5" y="30.7" font-family="Times New Roman,serif" font-size="14.00">new_password_params</text>
<text text-anchor="start" x="122.5" y="45.7" font-family="Times New Roman,serif" font-size="14.00">sort_column</text>
<text text-anchor="start" x="122.5" y="60.7" font-family="Times New Roman,serif" font-size="14.00">sort_direction</text>
<text text-anchor="start" x="122.5" y="75.7" font-family="Times New Roman,serif" font-size="14.00">update_params</text>
<text text-anchor="start" x="122.5" y="90.7" font-family="Times New Roman,serif" font-size="14.00">user_params</text>
<text text-anchor="start" x="122.5" y="105.7" font-family="Times New Roman,serif" font-size="14.00">_layout</text>
</g>
</g>
</svg>
