<?xml version="1.0" encoding="UTF-8" standalone="no"?>
<!DOCTYPE svg PUBLIC "-//W3C//DTD SVG 1.1//EN"
 "http://www.w3.org/Graphics/SVG/1.1/DTD/svg11.dtd">
<!-- Generated by graphviz version 2.38.0 (20140413.2041)
 -->
<!-- Title: controllers_diagram Pages: 1 -->
<svg width="397pt" height="534pt"
 viewBox="0.00 0.00 397.00 533.50" xmlns="http://www.w3.org/2000/svg" xmlns:xlink="http://www.w3.org/1999/xlink">
<g id="graph0" class="graph" transform="scale(1 1) rotate(0) translate(129.5 260)">
<title>controllers_diagram</title>
<polygon fill="none" stroke="none" points="-129.5,273.5 -129.5,-260 267.5,-260 267.5,273.5 -129.5,273.5"/>
<!-- _diagram_info -->
<g id="node1" class="node"><title>_diagram_info</title>
<text text-anchor="start" x="-117.5" y="-225.6" font-family="Times New Roman,serif" font-size="13.00">Controllers diagram</text>
<text text-anchor="start" x="-117.5" y="-211.6" font-family="Times New Roman,serif" font-size="13.00">Date: Oct 17 2019 &#45; 14:30</text>
<text text-anchor="start" x="-117.5" y="-197.6" font-family="Times New Roman,serif" font-size="13.00">Migration version: 20191016140757</text>
<text text-anchor="start" x="-117.5" y="-183.6" font-family="Times New Roman,serif" font-size="13.00">Generated by RailRoady 1.5.3</text>
<text text-anchor="start" x="-117.5" y="-169.6" font-family="Times New Roman,serif" font-size="13.00">http://railroady.prestonlee.com</text>
</g>
<!-- ApplicationController -->
<g id="node2" class="node"><title>ApplicationController</title>
<path fill="none" stroke="black" d="M138.5,125.5C138.5,125.5 251.5,125.5 251.5,125.5 257.5,125.5 263.5,119.5 263.5,113.5 263.5,113.5 263.5,-15.5 263.5,-15.5 263.5,-21.5 257.5,-27.5 251.5,-27.5 251.5,-27.5 138.5,-27.5 138.5,-27.5 132.5,-27.5 126.5,-21.5 126.5,-15.5 126.5,-15.5 126.5,113.5 126.5,113.5 126.5,119.5 132.5,125.5 138.5,125.5"/>
<text text-anchor="middle" x="195" y="-12.3" font-family="Times New Roman,serif" font-size="14.00">ApplicationController</text>
<polyline fill="none" stroke="black" points="126.5,-4.5 263.5,-4.5 "/>
<text text-anchor="start" x="134.5" y="10.7" font-family="Times New Roman,serif" font-size="14.00">authenticate_user!</text>
<text text-anchor="start" x="134.5" y="25.7" font-family="Times New Roman,serif" font-size="14.00">current_admin</text>
<text text-anchor="start" x="134.5" y="40.7" font-family="Times New Roman,serif" font-size="14.00">current_user</text>
<text text-anchor="start" x="134.5" y="55.7" font-family="Times New Roman,serif" font-size="14.00">valid_session</text>
<text text-anchor="start" x="134.5" y="70.7" font-family="Times New Roman,serif" font-size="14.00">authenticate_admin!</text>
<polyline fill="none" stroke="black" points="126.5,78.5 263.5,78.5 "/>
<polyline fill="none" stroke="black" points="126.5,102.5 263.5,102.5 "/>
<text text-anchor="start" x="134.5" y="117.7" font-family="Times New Roman,serif" font-size="14.00">_layout</text>
</g>
<!-- DonationTransactionController -->
<g id="node3" class="node"><title>DonationTransactionController</title>
<path fill="none" stroke="black" d="M-95.5,125.5C-95.5,125.5 75.5,125.5 75.5,125.5 81.5,125.5 87.5,119.5 87.5,113.5 87.5,113.5 87.5,-105.5 87.5,-105.5 87.5,-111.5 81.5,-117.5 75.5,-117.5 75.5,-117.5 -95.5,-117.5 -95.5,-117.5 -101.5,-117.5 -107.5,-111.5 -107.5,-105.5 -107.5,-105.5 -107.5,113.5 -107.5,113.5 -107.5,119.5 -101.5,125.5 -95.5,125.5"/>
<text text-anchor="middle" x="-10" y="-102.3" font-family="Times New Roman,serif" font-size="14.00">DonationTransactionController</text>
<polyline fill="none" stroke="black" points="-107.5,-94.5 87.5,-94.5 "/>
<text text-anchor="start" x="-99.5" y="-79.3" font-family="Times New Roman,serif" font-size="14.00">checkout</text>
<text text-anchor="start" x="-99.5" y="-64.3" font-family="Times New Roman,serif" font-size="14.00">index</text>
<text text-anchor="start" x="-99.5" y="-49.3" font-family="Times New Roman,serif" font-size="14.00">new</text>
<text text-anchor="start" x="-99.5" y="-34.3" font-family="Times New Roman,serif" font-size="14.00">success</text>
<text text-anchor="start" x="-99.5" y="-19.3" font-family="Times New Roman,serif" font-size="14.00">cancelled</text>
<polyline fill="none" stroke="black" points="-107.5,-11.5 87.5,-11.5 "/>
<polyline fill="none" stroke="black" points="-107.5,12.5 87.5,12.5 "/>
<text text-anchor="start" x="-99.5" y="27.7" font-family="Times New Roman,serif" font-size="14.00">build_item</text>
<text text-anchor="start" x="-99.5" y="42.7" font-family="Times New Roman,serif" font-size="14.00">build_transaction</text>
<text text-anchor="start" x="-99.5" y="57.7" font-family="Times New Roman,serif" font-size="14.00">execute_paypal_payment</text>
<text text-anchor="start" x="-99.5" y="72.7" font-family="Times New Roman,serif" font-size="14.00">new_paypal_service</text>
<text text-anchor="start" x="-99.5" y="87.7" font-family="Times New Roman,serif" font-size="14.00">paypal_transaction_cancel_url</text>
<text text-anchor="start" x="-99.5" y="102.7" font-family="Times New Roman,serif" font-size="14.00">paypal_transaction_success_url</text>
<text text-anchor="start" x="-99.5" y="117.7" font-family="Times New Roman,serif" font-size="14.00">_layout</text>
</g>
<!-- SessionsController -->
<g id="node4" class="node"><title>SessionsController</title>
<path fill="none" stroke="black" d="M12,269C12,269 110,269 110,269 116,269 122,263 122,257 122,257 122,173 122,173 122,167 116,161 110,161 110,161 12,161 12,161 6,161 0,167 0,173 0,173 0,257 0,257 0,263 6,269 12,269"/>
<text text-anchor="middle" x="61" y="176.2" font-family="Times New Roman,serif" font-size="14.00">SessionsController</text>
<polyline fill="none" stroke="black" points="0,184 122,184 "/>
<text text-anchor="start" x="8" y="199.2" font-family="Times New Roman,serif" font-size="14.00">destroy</text>
<text text-anchor="start" x="8" y="214.2" font-family="Times New Roman,serif" font-size="14.00">create</text>
<polyline fill="none" stroke="black" points="0,222 122,222 "/>
<polyline fill="none" stroke="black" points="0,246 122,246 "/>
<text text-anchor="start" x="8" y="261.2" font-family="Times New Roman,serif" font-size="14.00">_layout</text>
</g>
<!-- UsersController -->
<g id="node5" class="node"><title>UsersController</title>
<path fill="none" stroke="black" d="M138.5,-72.5C138.5,-72.5 219.5,-72.5 219.5,-72.5 225.5,-72.5 231.5,-78.5 231.5,-84.5 231.5,-84.5 231.5,-243.5 231.5,-243.5 231.5,-249.5 225.5,-255.5 219.5,-255.5 219.5,-255.5 138.5,-255.5 138.5,-255.5 132.5,-255.5 126.5,-249.5 126.5,-243.5 126.5,-243.5 126.5,-84.5 126.5,-84.5 126.5,-78.5 132.5,-72.5 138.5,-72.5"/>
<text text-anchor="middle" x="179" y="-240.3" font-family="Times New Roman,serif" font-size="14.00">UsersController</text>
<polyline fill="none" stroke="black" points="126.5,-232.5 231.5,-232.5 "/>
<text text-anchor="start" x="134.5" y="-217.3" font-family="Times New Roman,serif" font-size="14.00">edit</text>
<text text-anchor="start" x="134.5" y="-202.3" font-family="Times New Roman,serif" font-size="14.00">index</text>
<text text-anchor="start" x="134.5" y="-187.3" font-family="Times New Roman,serif" font-size="14.00">new</text>
<text text-anchor="start" x="134.5" y="-172.3" font-family="Times New Roman,serif" font-size="14.00">show</text>
<text text-anchor="start" x="134.5" y="-157.3" font-family="Times New Roman,serif" font-size="14.00">update</text>
<text text-anchor="start" x="134.5" y="-142.3" font-family="Times New Roman,serif" font-size="14.00">create</text>
<polyline fill="none" stroke="black" points="126.5,-134.5 231.5,-134.5 "/>
<polyline fill="none" stroke="black" points="126.5,-110.5 231.5,-110.5 "/>
<text text-anchor="start" x="134.5" y="-95.3" font-family="Times New Roman,serif" font-size="14.00">user_params</text>
<text text-anchor="start" x="134.5" y="-80.3" font-family="Times New Roman,serif" font-size="14.00">_layout</text>
</g>
</g>
</svg>
