<?xml version="1.0" encoding="UTF-8" standalone="no"?>
<!DOCTYPE svg PUBLIC "-//W3C//DTD SVG 1.1//EN"
 "http://www.w3.org/Graphics/SVG/1.1/DTD/svg11.dtd">
<!-- Generated by graphviz version 2.38.0 (20140413.2041)
 -->
<!-- Title: controllers_diagram Pages: 1 -->
<svg width="583pt" height="607pt"
 viewBox="0.00 0.00 582.50 607.00" xmlns="http://www.w3.org/2000/svg" xmlns:xlink="http://www.w3.org/1999/xlink">
<g id="graph0" class="graph" transform="scale(1 1) rotate(0) translate(251 375)">
<title>controllers_diagram</title>
<polygon fill="none" stroke="none" points="-251,232 -251,-375 331.5,-375 331.5,232 -251,232"/>
<!-- _diagram_info -->
<g id="node1" class="node"><title>_diagram_info</title>
<text text-anchor="start" x="122.5" y="164.4" font-family="Times New Roman,serif" font-size="13.00">Controllers diagram</text>
<text text-anchor="start" x="122.5" y="178.4" font-family="Times New Roman,serif" font-size="13.00">Date: Oct 31 2019 &#45; 18:22</text>
<text text-anchor="start" x="122.5" y="192.4" font-family="Times New Roman,serif" font-size="13.00">Migration version: 20191028221956</text>
<text text-anchor="start" x="122.5" y="206.4" font-family="Times New Roman,serif" font-size="13.00">Generated by RailRoady 1.5.3</text>
<text text-anchor="start" x="122.5" y="220.4" font-family="Times New Roman,serif" font-size="13.00">http://railroady.prestonlee.com</text>
</g>
<!-- ApplicationController -->
<g id="node2" class="node"><title>ApplicationController</title>
<path fill="none" stroke="black" d="M202.5,-190.5C202.5,-190.5 315.5,-190.5 315.5,-190.5 321.5,-190.5 327.5,-196.5 327.5,-202.5 327.5,-202.5 327.5,-331.5 327.5,-331.5 327.5,-337.5 321.5,-343.5 315.5,-343.5 315.5,-343.5 202.5,-343.5 202.5,-343.5 196.5,-343.5 190.5,-337.5 190.5,-331.5 190.5,-331.5 190.5,-202.5 190.5,-202.5 190.5,-196.5 196.5,-190.5 202.5,-190.5"/>
<text text-anchor="middle" x="259" y="-328.3" font-family="Times New Roman,serif" font-size="14.00">ApplicationController</text>
<polyline fill="none" stroke="black" points="190.5,-320.5 327.5,-320.5 "/>
<text text-anchor="start" x="198.5" y="-305.3" font-family="Times New Roman,serif" font-size="14.00">authenticate_user!</text>
<text text-anchor="start" x="198.5" y="-290.3" font-family="Times New Roman,serif" font-size="14.00">current_admin</text>
<text text-anchor="start" x="198.5" y="-275.3" font-family="Times New Roman,serif" font-size="14.00">current_user</text>
<text text-anchor="start" x="198.5" y="-260.3" font-family="Times New Roman,serif" font-size="14.00">valid_session</text>
<text text-anchor="start" x="198.5" y="-245.3" font-family="Times New Roman,serif" font-size="14.00">authenticate_admin!</text>
<polyline fill="none" stroke="black" points="190.5,-237.5 327.5,-237.5 "/>
<polyline fill="none" stroke="black" points="190.5,-213.5 327.5,-213.5 "/>
<text text-anchor="start" x="198.5" y="-198.3" font-family="Times New Roman,serif" font-size="14.00">_layout</text>
</g>
<!-- DonationTransactionController -->
<g id="node3" class="node"><title>DonationTransactionController</title>
<path fill="none" stroke="black" d="M-101.5,132.5C-101.5,132.5 69.5,132.5 69.5,132.5 75.5,132.5 81.5,126.5 81.5,120.5 81.5,120.5 81.5,-98.5 81.5,-98.5 81.5,-104.5 75.5,-110.5 69.5,-110.5 69.5,-110.5 -101.5,-110.5 -101.5,-110.5 -107.5,-110.5 -113.5,-104.5 -113.5,-98.5 -113.5,-98.5 -113.5,120.5 -113.5,120.5 -113.5,126.5 -107.5,132.5 -101.5,132.5"/>
<text text-anchor="middle" x="-16" y="-95.3" font-family="Times New Roman,serif" font-size="14.00">DonationTransactionController</text>
<polyline fill="none" stroke="black" points="-113.5,-87.5 81.5,-87.5 "/>
<text text-anchor="start" x="-105.5" y="-72.3" font-family="Times New Roman,serif" font-size="14.00">checkout</text>
<text text-anchor="start" x="-105.5" y="-57.3" font-family="Times New Roman,serif" font-size="14.00">index</text>
<text text-anchor="start" x="-105.5" y="-42.3" font-family="Times New Roman,serif" font-size="14.00">new</text>
<text text-anchor="start" x="-105.5" y="-27.3" font-family="Times New Roman,serif" font-size="14.00">success</text>
<text text-anchor="start" x="-105.5" y="-12.3" font-family="Times New Roman,serif" font-size="14.00">cancelled</text>
<polyline fill="none" stroke="black" points="-113.5,-4.5 81.5,-4.5 "/>
<polyline fill="none" stroke="black" points="-113.5,19.5 81.5,19.5 "/>
<text text-anchor="start" x="-105.5" y="34.7" font-family="Times New Roman,serif" font-size="14.00">build_item</text>
<text text-anchor="start" x="-105.5" y="49.7" font-family="Times New Roman,serif" font-size="14.00">build_transaction</text>
<text text-anchor="start" x="-105.5" y="64.7" font-family="Times New Roman,serif" font-size="14.00">execute_paypal_payment</text>
<text text-anchor="start" x="-105.5" y="79.7" font-family="Times New Roman,serif" font-size="14.00">new_paypal_service</text>
<text text-anchor="start" x="-105.5" y="94.7" font-family="Times New Roman,serif" font-size="14.00">paypal_transaction_cancel_url</text>
<text text-anchor="start" x="-105.5" y="109.7" font-family="Times New Roman,serif" font-size="14.00">paypal_transaction_success_url</text>
<text text-anchor="start" x="-105.5" y="124.7" font-family="Times New Roman,serif" font-size="14.00">_layout</text>
</g>
<!-- PasswordResetsController -->
<g id="node4" class="node"><title>PasswordResetsController</title>
<path fill="none" stroke="black" d="M-83,-152.5C-83,-152.5 59,-152.5 59,-152.5 65,-152.5 71,-158.5 71,-164.5 71,-164.5 71,-293.5 71,-293.5 71,-299.5 65,-305.5 59,-305.5 59,-305.5 -83,-305.5 -83,-305.5 -89,-305.5 -95,-299.5 -95,-293.5 -95,-293.5 -95,-164.5 -95,-164.5 -95,-158.5 -89,-152.5 -83,-152.5"/>
<text text-anchor="middle" x="-12" y="-290.3" font-family="Times New Roman,serif" font-size="14.00">PasswordResetsController</text>
<polyline fill="none" stroke="black" points="-95,-282.5 71,-282.5 "/>
<text text-anchor="start" x="-87" y="-267.3" font-family="Times New Roman,serif" font-size="14.00">edit</text>
<text text-anchor="start" x="-87" y="-252.3" font-family="Times New Roman,serif" font-size="14.00">new</text>
<text text-anchor="start" x="-87" y="-237.3" font-family="Times New Roman,serif" font-size="14.00">update</text>
<text text-anchor="start" x="-87" y="-222.3" font-family="Times New Roman,serif" font-size="14.00">create</text>
<polyline fill="none" stroke="black" points="-95,-214.5 71,-214.5 "/>
<polyline fill="none" stroke="black" points="-95,-190.5 71,-190.5 "/>
<text text-anchor="start" x="-87" y="-175.3" font-family="Times New Roman,serif" font-size="14.00">user_params</text>
<text text-anchor="start" x="-87" y="-160.3" font-family="Times New Roman,serif" font-size="14.00">_layout</text>
</g>
<!-- SessionsController -->
<g id="node5" class="node"><title>SessionsController</title>
<path fill="none" stroke="black" d="M-235,-247.5C-235,-247.5 -137,-247.5 -137,-247.5 -131,-247.5 -125,-253.5 -125,-259.5 -125,-259.5 -125,-358.5 -125,-358.5 -125,-364.5 -131,-370.5 -137,-370.5 -137,-370.5 -235,-370.5 -235,-370.5 -241,-370.5 -247,-364.5 -247,-358.5 -247,-358.5 -247,-259.5 -247,-259.5 -247,-253.5 -241,-247.5 -235,-247.5"/>
<text text-anchor="middle" x="-186" y="-355.3" font-family="Times New Roman,serif" font-size="14.00">SessionsController</text>
<polyline fill="none" stroke="black" points="-247,-347.5 -125,-347.5 "/>
<text text-anchor="start" x="-239" y="-332.3" font-family="Times New Roman,serif" font-size="14.00">destroy</text>
<text text-anchor="start" x="-239" y="-317.3" font-family="Times New Roman,serif" font-size="14.00">new</text>
<text text-anchor="start" x="-239" y="-302.3" font-family="Times New Roman,serif" font-size="14.00">create</text>
<polyline fill="none" stroke="black" points="-247,-294.5 -125,-294.5 "/>
<polyline fill="none" stroke="black" points="-247,-270.5 -125,-270.5 "/>
<text text-anchor="start" x="-239" y="-255.3" font-family="Times New Roman,serif" font-size="14.00">_layout</text>
</g>
<!-- UsersController -->
<g id="node6" class="node"><title>UsersController</title>
<path fill="none" stroke="black" d="M126.5,113C126.5,113 231.5,113 231.5,113 237.5,113 243.5,107 243.5,101 243.5,101 243.5,-133 243.5,-133 243.5,-139 237.5,-145 231.5,-145 231.5,-145 126.5,-145 126.5,-145 120.5,-145 114.5,-139 114.5,-133 114.5,-133 114.5,101 114.5,101 114.5,107 120.5,113 126.5,113"/>
<text text-anchor="middle" x="179" y="-129.8" font-family="Times New Roman,serif" font-size="14.00">UsersController</text>
<polyline fill="none" stroke="black" points="114.5,-122 243.5,-122 "/>
<text text-anchor="start" x="122.5" y="-106.8" font-family="Times New Roman,serif" font-size="14.00">destroy</text>
<text text-anchor="start" x="122.5" y="-91.8" font-family="Times New Roman,serif" font-size="14.00">edit</text>
<text text-anchor="start" x="122.5" y="-76.8" font-family="Times New Roman,serif" font-size="14.00">index</text>
<text text-anchor="start" x="122.5" y="-61.8" font-family="Times New Roman,serif" font-size="14.00">new</text>
<text text-anchor="start" x="122.5" y="-46.8" font-family="Times New Roman,serif" font-size="14.00">show</text>
<text text-anchor="start" x="122.5" y="-31.8" font-family="Times New Roman,serif" font-size="14.00">update</text>
<text text-anchor="start" x="122.5" y="-16.8" font-family="Times New Roman,serif" font-size="14.00">create</text>
<polyline fill="none" stroke="black" points="114.5,-9 243.5,-9 "/>
<polyline fill="none" stroke="black" points="114.5,15 243.5,15 "/>
<text text-anchor="start" x="122.5" y="30.2" font-family="Times New Roman,serif" font-size="14.00">is_currently_admin?</text>
<text text-anchor="start" x="122.5" y="45.2" font-family="Times New Roman,serif" font-size="14.00">sort_column</text>
<text text-anchor="start" x="122.5" y="60.2" font-family="Times New Roman,serif" font-size="14.00">sort_direction</text>
<text text-anchor="start" x="122.5" y="75.2" font-family="Times New Roman,serif" font-size="14.00">update_params</text>
<text text-anchor="start" x="122.5" y="90.2" font-family="Times New Roman,serif" font-size="14.00">user_params</text>
<text text-anchor="start" x="122.5" y="105.2" font-family="Times New Roman,serif" font-size="14.00">_layout</text>
</g>
</g>
</svg>
