<?xml version="1.0" encoding="UTF-8" standalone="no"?>
<!DOCTYPE svg PUBLIC "-//W3C//DTD SVG 1.1//EN"
 "http://www.w3.org/Graphics/SVG/1.1/DTD/svg11.dtd">
<!-- Generated by graphviz version 2.38.0 (20140413.2041)
 -->
<!-- Title: models_diagram Pages: 1 -->
<svg width="627pt" height="423pt"
 viewBox="0.00 0.00 627.00 423.00" xmlns="http://www.w3.org/2000/svg" xmlns:xlink="http://www.w3.org/1999/xlink">
<g id="graph0" class="graph" transform="scale(1 1) rotate(0) translate(4 419)">
<title>models_diagram</title>
<polygon fill="none" stroke="none" points="-4,4 -4,-419 623,-419 623,4 -4,4"/>
<!-- _diagram_info -->
<g id="node1" class="node"><title>_diagram_info</title>
<text text-anchor="start" x="8" y="-326.1" font-family="Times New Roman,serif" font-size="13.00">Models diagram</text>
<text text-anchor="start" x="8" y="-312.1" font-family="Times New Roman,serif" font-size="13.00">Date: Oct 17 2019 &#45; 14:30</text>
<text text-anchor="start" x="8" y="-298.1" font-family="Times New Roman,serif" font-size="13.00">Migration version: 20191016140757</text>
<text text-anchor="start" x="8" y="-284.1" font-family="Times New Roman,serif" font-size="13.00">Generated by RailRoady 1.5.3</text>
<text text-anchor="start" x="8" y="-270.1" font-family="Times New Roman,serif" font-size="13.00">http://railroady.prestonlee.com</text>
</g>
<!-- ApplicationRecord -->
<g id="node2" class="node"><title>ApplicationRecord</title>
<ellipse fill="none" stroke="black" cx="306.5" cy="-301.5" rx="79.8859" ry="18"/>
<text text-anchor="middle" x="306.5" y="-297.8" font-family="Times New Roman,serif" font-size="14.00">ApplicationRecord</text>
</g>
<!-- MadeDonation -->
<g id="node3" class="node"><title>MadeDonation</title>
<path fill="none" stroke="black" d="M444,-0.5C444,-0.5 579,-0.5 579,-0.5 585,-0.5 591,-6.5 591,-12.5 591,-12.5 591,-139.5 591,-139.5 591,-145.5 585,-151.5 579,-151.5 579,-151.5 444,-151.5 444,-151.5 438,-151.5 432,-145.5 432,-139.5 432,-139.5 432,-12.5 432,-12.5 432,-6.5 438,-0.5 444,-0.5"/>
<text text-anchor="middle" x="511.5" y="-136.3" font-family="Times New Roman,serif" font-size="14.00">MadeDonation</text>
<polyline fill="none" stroke="black" points="432,-128.5 591,-128.5 "/>
<text text-anchor="start" x="440" y="-113.3" font-family="Times New Roman,serif" font-size="14.00">user_id :bigint(20)</text>
<text text-anchor="start" x="440" y="-98.3" font-family="Times New Roman,serif" font-size="14.00">payment_id :varchar(255)</text>
<text text-anchor="start" x="440" y="-83.3" font-family="Times New Roman,serif" font-size="14.00">price :decimal(6,2)</text>
<text text-anchor="start" x="440" y="-68.3" font-family="Times New Roman,serif" font-size="14.00">payer_id :varchar(255)</text>
<text text-anchor="start" x="440" y="-53.3" font-family="Times New Roman,serif" font-size="14.00">token :varchar(255)</text>
<text text-anchor="start" x="440" y="-38.3" font-family="Times New Roman,serif" font-size="14.00">created_at :datetime(6)</text>
<text text-anchor="start" x="440" y="-23.3" font-family="Times New Roman,serif" font-size="14.00">updated_at :datetime(6)</text>
<text text-anchor="start" x="440" y="-8.3" font-family="Times New Roman,serif" font-size="14.00">id :bigint(20)</text>
</g>
<!-- User -->
<g id="node4" class="node"><title>User</title>
<path fill="none" stroke="black" d="M416,-188.5C416,-188.5 607,-188.5 607,-188.5 613,-188.5 619,-194.5 619,-200.5 619,-200.5 619,-402.5 619,-402.5 619,-408.5 613,-414.5 607,-414.5 607,-414.5 416,-414.5 416,-414.5 410,-414.5 404,-408.5 404,-402.5 404,-402.5 404,-200.5 404,-200.5 404,-194.5 410,-188.5 416,-188.5"/>
<text text-anchor="middle" x="511.5" y="-399.3" font-family="Times New Roman,serif" font-size="14.00">User</text>
<polyline fill="none" stroke="black" points="404,-391.5 619,-391.5 "/>
<text text-anchor="start" x="412" y="-376.3" font-family="Times New Roman,serif" font-size="14.00">id :bigint(20)</text>
<text text-anchor="start" x="412" y="-361.3" font-family="Times New Roman,serif" font-size="14.00">first_name :varchar(255)</text>
<text text-anchor="start" x="412" y="-346.3" font-family="Times New Roman,serif" font-size="14.00">last_name :varchar(255)</text>
<text text-anchor="start" x="412" y="-331.3" font-family="Times New Roman,serif" font-size="14.00">email :varchar(255)</text>
<text text-anchor="start" x="412" y="-316.3" font-family="Times New Roman,serif" font-size="14.00">password_digest :varchar(255)</text>
<text text-anchor="start" x="412" y="-301.3" font-family="Times New Roman,serif" font-size="14.00">street_address_line_1 :varchar(255)</text>
<text text-anchor="start" x="412" y="-286.3" font-family="Times New Roman,serif" font-size="14.00">street_address_line_2 :varchar(255)</text>
<text text-anchor="start" x="412" y="-271.3" font-family="Times New Roman,serif" font-size="14.00">city :varchar(255)</text>
<text text-anchor="start" x="412" y="-256.3" font-family="Times New Roman,serif" font-size="14.00">state :varchar(255)</text>
<text text-anchor="start" x="412" y="-241.3" font-family="Times New Roman,serif" font-size="14.00">zip_code :varchar(255)</text>
<text text-anchor="start" x="412" y="-226.3" font-family="Times New Roman,serif" font-size="14.00">admin :tinyint(1)</text>
<text text-anchor="start" x="412" y="-211.3" font-family="Times New Roman,serif" font-size="14.00">created_at :datetime(6)</text>
<text text-anchor="start" x="412" y="-196.3" font-family="Times New Roman,serif" font-size="14.00">updated_at :datetime(6)</text>
</g>
<!-- User&#45;&gt;MadeDonation -->
<g id="edge1" class="edge"><title>User&#45;&gt;MadeDonation</title>
<path fill="none" stroke="#62dedc" d="M511.5,-180.281C511.5,-174.083 511.5,-167.919 511.5,-161.868"/>
<ellipse fill="none" stroke="#62dedc" cx="511.5" cy="-184.423" rx="4" ry="4"/>
<polygon fill="#62dedc" stroke="#62dedc" points="511.5,-161.802 516,-151.802 511.5,-156.802 511.5,-151.802 511.5,-151.802 511.5,-151.802 511.5,-156.802 507,-151.802 511.5,-161.802 511.5,-161.802"/>
</g>
</g>
</svg>
