<?xml version="1.0" encoding="UTF-8" standalone="no"?>
<!DOCTYPE svg PUBLIC "-//W3C//DTD SVG 1.1//EN"
 "http://www.w3.org/Graphics/SVG/1.1/DTD/svg11.dtd">
<!-- Generated by graphviz version 2.38.0 (20140413.2041)
 -->
<!-- Title: models_diagram Pages: 1 -->
<svg width="505pt" height="158pt"
 viewBox="0.00 0.00 504.84 158.00" xmlns="http://www.w3.org/2000/svg" xmlns:xlink="http://www.w3.org/1999/xlink">
<g id="graph0" class="graph" transform="scale(1 1) rotate(0) translate(4 154)">
<title>models_diagram</title>
<polygon fill="none" stroke="none" points="-4,4 -4,-154 500.844,-154 500.844,4 -4,4"/>
<!-- _diagram_info -->
<g id="node1" class="node"><title>_diagram_info</title>
<text text-anchor="start" x="8" y="-135.6" font-family="Times New Roman,serif" font-size="13.00">Models diagram</text>
<text text-anchor="start" x="8" y="-121.6" font-family="Times New Roman,serif" font-size="13.00">Date: Oct 31 2019 &#45; 18:21</text>
<text text-anchor="start" x="8" y="-107.6" font-family="Times New Roman,serif" font-size="13.00">Migration version: 20191028221956</text>
<text text-anchor="start" x="8" y="-93.6" font-family="Times New Roman,serif" font-size="13.00">Generated by RailRoady 1.5.3</text>
<text text-anchor="start" x="8" y="-79.6" font-family="Times New Roman,serif" font-size="13.00">http://railroady.prestonlee.com</text>
</g>
<!-- ApplicationRecord -->
<g id="node2" class="node"><title>ApplicationRecord</title>
<ellipse fill="none" stroke="black" cx="306.5" cy="-111" rx="79.8859" ry="18"/>
<text text-anchor="middle" x="306.5" y="-107.3" font-family="Times New Roman,serif" font-size="14.00">ApplicationRecord</text>
</g>
<!-- MadeDonation -->
<g id="node3" class="node"><title>MadeDonation</title>
<ellipse fill="none" stroke="black" cx="432.5" cy="-18" rx="64.189" ry="18"/>
<text text-anchor="middle" x="432.5" y="-14.3" font-family="Times New Roman,serif" font-size="14.00">MadeDonation</text>
</g>
<!-- User -->
<g id="node4" class="node"><title>User</title>
<ellipse fill="none" stroke="black" cx="432.5" cy="-111" rx="27.8951" ry="18"/>
<text text-anchor="middle" x="432.5" y="-107.3" font-family="Times New Roman,serif" font-size="14.00">User</text>
</g>
<!-- User&#45;&gt;MadeDonation -->
<g id="edge1" class="edge"><title>User&#45;&gt;MadeDonation</title>
<path fill="none" stroke="#48a878" d="M432.5,-84.7285C432.5,-72.7246 432.5,-58.3622 432.5,-46.1291"/>
<ellipse fill="none" stroke="#48a878" cx="432.5" cy="-88.8836" rx="4" ry="4"/>
<polygon fill="#48a878" stroke="#48a878" points="432.5,-46.0397 437,-36.0396 432.5,-41.0397 432.5,-36.0397 432.5,-36.0397 432.5,-36.0397 432.5,-41.0397 428,-36.0397 432.5,-46.0397 432.5,-46.0397"/>
</g>
</g>
</svg>
