<?xml version="1.0" encoding="UTF-8" standalone="no"?>
<!DOCTYPE svg PUBLIC "-//W3C//DTD SVG 1.1//EN"
 "http://www.w3.org/Graphics/SVG/1.1/DTD/svg11.dtd">
<!-- Generated by graphviz version 2.38.0 (20140413.2041)
 -->
<!-- Title: models_diagram Pages: 1 -->
<svg width="633pt" height="453pt"
 viewBox="0.00 0.00 633.00 453.00" xmlns="http://www.w3.org/2000/svg" xmlns:xlink="http://www.w3.org/1999/xlink">
<g id="graph0" class="graph" transform="scale(1 1) rotate(0) translate(4 449)">
<title>models_diagram</title>
<polygon fill="none" stroke="none" points="-4,4 -4,-449 629,-449 629,4 -4,4"/>
<!-- _diagram_info -->
<g id="node1" class="node"><title>_diagram_info</title>
<text text-anchor="start" x="8" y="-341.1" font-family="Times New Roman,serif" font-size="13.00">Models diagram</text>
<text text-anchor="start" x="8" y="-327.1" font-family="Times New Roman,serif" font-size="13.00">Date: Oct 31 2019 &#45; 18:21</text>
<text text-anchor="start" x="8" y="-313.1" font-family="Times New Roman,serif" font-size="13.00">Migration version: 20191028221956</text>
<text text-anchor="start" x="8" y="-299.1" font-family="Times New Roman,serif" font-size="13.00">Generated by RailRoady 1.5.3</text>
<text text-anchor="start" x="8" y="-285.1" font-family="Times New Roman,serif" font-size="13.00">http://railroady.prestonlee.com</text>
</g>
<!-- ApplicationRecord -->
<g id="node2" class="node"><title>ApplicationRecord</title>
<ellipse fill="none" stroke="black" cx="306.5" cy="-316.5" rx="79.8859" ry="18"/>
<text text-anchor="middle" x="306.5" y="-312.8" font-family="Times New Roman,serif" font-size="14.00">ApplicationRecord</text>
</g>
<!-- MadeDonation -->
<g id="node3" class="node"><title>MadeDonation</title>
<path fill="none" stroke="black" d="M447,-0.5C447,-0.5 582,-0.5 582,-0.5 588,-0.5 594,-6.5 594,-12.5 594,-12.5 594,-139.5 594,-139.5 594,-145.5 588,-151.5 582,-151.5 582,-151.5 447,-151.5 447,-151.5 441,-151.5 435,-145.5 435,-139.5 435,-139.5 435,-12.5 435,-12.5 435,-6.5 441,-0.5 447,-0.5"/>
<text text-anchor="middle" x="514.5" y="-136.3" font-family="Times New Roman,serif" font-size="14.00">MadeDonation</text>
<polyline fill="none" stroke="black" points="435,-128.5 594,-128.5 "/>
<text text-anchor="start" x="443" y="-113.3" font-family="Times New Roman,serif" font-size="14.00">user_id :bigint(20)</text>
<text text-anchor="start" x="443" y="-98.3" font-family="Times New Roman,serif" font-size="14.00">payment_id :varchar(255)</text>
<text text-anchor="start" x="443" y="-83.3" font-family="Times New Roman,serif" font-size="14.00">price :decimal(6,2)</text>
<text text-anchor="start" x="443" y="-68.3" font-family="Times New Roman,serif" font-size="14.00">payer_id :varchar(255)</text>
<text text-anchor="start" x="443" y="-53.3" font-family="Times New Roman,serif" font-size="14.00">token :varchar(255)</text>
<text text-anchor="start" x="443" y="-38.3" font-family="Times New Roman,serif" font-size="14.00">created_at :datetime(6)</text>
<text text-anchor="start" x="443" y="-23.3" font-family="Times New Roman,serif" font-size="14.00">updated_at :datetime(6)</text>
<text text-anchor="start" x="443" y="-8.3" font-family="Times New Roman,serif" font-size="14.00">id :bigint(20)</text>
</g>
<!-- User -->
<g id="node4" class="node"><title>User</title>
<path fill="none" stroke="black" d="M416,-188.5C416,-188.5 613,-188.5 613,-188.5 619,-188.5 625,-194.5 625,-200.5 625,-200.5 625,-432.5 625,-432.5 625,-438.5 619,-444.5 613,-444.5 613,-444.5 416,-444.5 416,-444.5 410,-444.5 404,-438.5 404,-432.5 404,-432.5 404,-200.5 404,-200.5 404,-194.5 410,-188.5 416,-188.5"/>
<text text-anchor="middle" x="514.5" y="-429.3" font-family="Times New Roman,serif" font-size="14.00">User</text>
<polyline fill="none" stroke="black" points="404,-421.5 625,-421.5 "/>
<text text-anchor="start" x="412" y="-406.3" font-family="Times New Roman,serif" font-size="14.00">id :bigint(20)</text>
<text text-anchor="start" x="412" y="-391.3" font-family="Times New Roman,serif" font-size="14.00">first_name :varchar(255)</text>
<text text-anchor="start" x="412" y="-376.3" font-family="Times New Roman,serif" font-size="14.00">last_name :varchar(255)</text>
<text text-anchor="start" x="412" y="-361.3" font-family="Times New Roman,serif" font-size="14.00">email :varchar(255)</text>
<text text-anchor="start" x="412" y="-346.3" font-family="Times New Roman,serif" font-size="14.00">password_digest :varchar(255)</text>
<text text-anchor="start" x="412" y="-331.3" font-family="Times New Roman,serif" font-size="14.00">street_address_line_1 :varchar(255)</text>
<text text-anchor="start" x="412" y="-316.3" font-family="Times New Roman,serif" font-size="14.00">street_address_line_2 :varchar(255)</text>
<text text-anchor="start" x="412" y="-301.3" font-family="Times New Roman,serif" font-size="14.00">city :varchar(255)</text>
<text text-anchor="start" x="412" y="-286.3" font-family="Times New Roman,serif" font-size="14.00">state :varchar(255)</text>
<text text-anchor="start" x="412" y="-271.3" font-family="Times New Roman,serif" font-size="14.00">zip_code :varchar(255)</text>
<text text-anchor="start" x="412" y="-256.3" font-family="Times New Roman,serif" font-size="14.00">admin :tinyint(1)</text>
<text text-anchor="start" x="412" y="-241.3" font-family="Times New Roman,serif" font-size="14.00">created_at :datetime(6)</text>
<text text-anchor="start" x="412" y="-226.3" font-family="Times New Roman,serif" font-size="14.00">updated_at :datetime(6)</text>
<text text-anchor="start" x="412" y="-211.3" font-family="Times New Roman,serif" font-size="14.00">password_reset_token :varchar(255)</text>
<text text-anchor="start" x="412" y="-196.3" font-family="Times New Roman,serif" font-size="14.00">password_reset_sent_at :datetime</text>
</g>
<!-- User&#45;&gt;MadeDonation -->
<g id="edge1" class="edge"><title>User&#45;&gt;MadeDonation</title>
<path fill="none" stroke="#d1fbf8" d="M514.5,-180.012C514.5,-173.773 514.5,-167.596 514.5,-161.548"/>
<ellipse fill="none" stroke="#d1fbf8" cx="514.5" cy="-184.22" rx="4" ry="4"/>
<polygon fill="#d1fbf8" stroke="#d1fbf8" points="514.5,-161.507 519,-151.507 514.5,-156.507 514.5,-151.507 514.5,-151.507 514.5,-151.507 514.5,-156.507 510,-151.507 514.5,-161.507 514.5,-161.507"/>
</g>
</g>
</svg>
